<svg width="36" height="36" viewBox="0 0 36 36" fill="none" xmlns="http://www.w3.org/2000/svg">
<mask id="mask0_307_43196" style="mask-type:alpha" maskUnits="userSpaceOnUse" x="8" y="8" width="20" height="20">
<path d="M18 9.75C13.446 9.75 9.75 13.446 9.75 18C9.75 22.1167 12.7695 25.5322 16.713 26.151V20.3842H14.6175V18H16.713V16.185C16.713 14.1142 17.9422 12.9757 19.8315 12.9757C20.7307 12.9757 21.6795 13.1407 21.6795 13.1407V15.1702H20.64C19.617 15.1702 19.2952 15.8055 19.2952 16.4572V18.0082H21.5805L21.2175 20.3925H19.2952V26.1592C23.2387 25.5405 26.25 22.1167 26.25 18C26.25 13.446 22.5622 9.75825 18.0082 9.75825L18 9.75Z" fill="#171719"/>
</mask>
<g mask="url(#mask0_307_43196)">
<rect x="8" y="8" width="20" height="20" fill="#AEB0B6"/>
</g>
</svg>
