<svg width="36" height="36" viewBox="0 0 36 36" fill="none" xmlns="http://www.w3.org/2000/svg">
<mask id="mask0_307_43167" style="mask-type:alpha" maskUnits="userSpaceOnUse" x="8" y="8" width="20" height="20">
<path d="M23.2505 13.7065C23.2505 14.2432 22.8211 14.6726 22.2844 14.6726C21.7477 14.6726 21.3183 14.2432 21.3183 13.7065C21.3183 13.1698 21.7477 12.7404 22.2844 12.7404C22.8211 12.7404 23.2505 13.1698 23.2505 13.7065ZM26.0413 18.0002C26.0413 20.1828 26.0324 20.4601 25.9966 21.3188C25.9608 22.1775 25.8177 22.759 25.6209 23.2689C25.4152 23.7966 25.1379 24.2439 24.6906 24.6911C24.2434 25.1384 23.7961 25.4157 23.2683 25.6214C22.7585 25.8182 22.1681 25.9524 21.3183 25.9971C20.4596 26.0329 20.1823 26.0418 17.9997 26.0418C15.8171 26.0418 15.5398 26.0329 14.681 25.9971C13.8223 25.9613 13.2409 25.8182 12.731 25.6214C12.2032 25.4157 11.756 25.1384 11.3087 24.6911C10.8615 24.2439 10.5842 23.7966 10.3784 23.2689C10.1816 22.759 10.0475 22.1686 10.0027 21.3188C9.96695 20.4601 9.95801 20.1828 9.95801 18.0002C9.95801 15.8176 9.96695 15.5403 10.0027 14.6815C10.0385 13.8228 10.1816 13.2414 10.3784 12.7315C10.5842 12.2037 10.8615 11.7565 11.3087 11.3092C11.756 10.862 12.2032 10.5847 12.731 10.3789C13.2409 10.1821 13.8312 10.0479 14.681 10.0032C15.5398 9.96744 15.8171 9.9585 17.9997 9.9585C20.1823 9.9585 20.4596 9.96744 21.3183 10.0032C22.177 10.039 22.7585 10.1821 23.2683 10.3789C23.7961 10.5847 24.2434 10.862 24.6906 11.3092C25.1379 11.7565 25.4152 12.2037 25.6209 12.7315C25.8177 13.2414 25.9519 13.8317 25.9966 14.6815C26.0324 15.5403 26.0413 15.8176 26.0413 18.0002ZM24.5922 18.0002C24.5922 15.8533 24.5922 15.5939 24.5475 14.7441C24.5117 13.957 24.3775 13.5365 24.2702 13.2503C24.1271 12.8746 23.9482 12.6063 23.6709 12.329C23.3936 12.0517 23.1252 11.8728 22.7495 11.7296C22.4633 11.6223 22.0429 11.4881 21.2557 11.4523C20.4059 11.4166 20.1554 11.4076 17.9997 11.4076C15.8439 11.4076 15.5934 11.4076 14.7436 11.4523C13.9565 11.4881 13.5361 11.6223 13.2498 11.7296C12.8741 11.8728 12.6058 12.0517 12.3285 12.329C12.0512 12.6063 11.8723 12.8746 11.7291 13.2503C11.6218 13.5365 11.4876 13.957 11.4518 14.7441C11.4161 15.5939 11.4071 15.8444 11.4071 18.0002C11.4071 20.1559 11.4071 20.4064 11.4518 21.2562C11.4876 22.0434 11.6218 22.4638 11.7291 22.75C11.8723 23.1257 12.0512 23.3941 12.3285 23.6714C12.6058 23.9487 12.8741 24.1276 13.2498 24.2707C13.5361 24.378 13.9565 24.5122 14.7436 24.548C15.5934 24.5838 15.8439 24.5927 17.9997 24.5927C20.1554 24.5927 20.4059 24.5927 21.2557 24.548C22.0429 24.5122 22.4633 24.378 22.7495 24.2707C23.1252 24.1276 23.3936 23.9487 23.6709 23.6714C23.9482 23.3941 24.1271 23.1257 24.2702 22.75C24.3775 22.4638 24.5117 22.0434 24.5475 21.2562C24.5833 20.4064 24.5922 20.1559 24.5922 18.0002ZM22.1234 18.0002C22.1234 20.2812 20.2717 22.1328 17.9907 22.1328C15.7097 22.1328 13.8581 20.2812 13.8581 18.0002C13.8581 15.7192 15.7097 13.8675 17.9907 13.8675C20.2717 13.8675 22.1234 15.7192 22.1234 18.0002ZM20.6743 18.0002C20.6743 16.5153 19.4756 15.3166 17.9907 15.3166C16.5058 15.3166 15.3072 16.5153 15.3072 18.0002C15.3072 19.4851 16.5058 20.6837 17.9907 20.6837C19.4756 20.6837 20.6743 19.4851 20.6743 18.0002Z" fill="#171719"/>
</mask>
<g mask="url(#mask0_307_43167)">
<rect x="8" y="8" width="20" height="20" fill="#AEB0B6"/>
</g>
</svg>
