<svg width="36" height="36" viewBox="0 0 36 36" fill="none" xmlns="http://www.w3.org/2000/svg">
<mask id="mask0_307_43209" style="mask-type:alpha" maskUnits="userSpaceOnUse" x="8" y="8" width="20" height="20">
<path fill-rule="evenodd" clip-rule="evenodd" d="M14.0037 23.4312C16.8593 23.4312 19.1743 21.0962 19.1743 18.2157C19.1743 15.3352 16.8595 13 14.0037 13C11.148 13 8.83301 15.3358 8.83301 18.2157C8.83301 21.0956 11.1482 23.4312 14.0037 23.4312ZM24.8461 18.2157C24.8461 20.9271 23.6886 23.1259 22.2607 23.1259C20.8329 23.1259 19.6754 20.9271 19.6754 18.2157C19.6754 15.5044 20.8327 13.3055 22.2606 13.3055C23.6884 13.3055 24.8459 15.5037 24.8459 18.2157H24.8461ZM27.1666 18.2156C27.1666 20.6443 26.7596 22.6144 26.2574 22.6144C25.7551 22.6144 25.3483 20.6448 25.3483 18.2156C25.3483 15.7864 25.7553 13.8169 26.2574 13.8169C26.7594 13.8169 27.1666 15.7862 27.1666 18.2156Z" fill="black"/>
</mask>
<g mask="url(#mask0_307_43209)">
<rect x="8" y="8" width="20" height="20" fill="#AEB0B6"/>
</g>
</svg>
