<svg width="36" height="36" viewBox="0 0 36 36" fill="none" xmlns="http://www.w3.org/2000/svg">
<mask id="mask0_307_43180" style="mask-type:alpha" maskUnits="userSpaceOnUse" x="8" y="8" width="20" height="20">
<path fill-rule="evenodd" clip-rule="evenodd" d="M24.9314 12.1603C25.6946 12.3645 26.2981 12.968 26.5022 13.7312C26.875 15.1157 26.875 18.0001 26.875 18.0001C26.875 18.0001 26.875 20.8845 26.5022 22.269C26.2981 23.0322 25.6946 23.6357 24.9314 23.8398C23.5469 24.2126 18 24.2126 18 24.2126C18 24.2126 12.4531 24.2126 11.0686 23.8398C10.3054 23.6357 9.70187 23.0322 9.49775 22.269C9.125 20.8845 9.125 18.0001 9.125 18.0001C9.125 18.0001 9.125 15.1157 9.49775 13.7312C9.70187 12.968 10.3054 12.3645 11.0686 12.1603C12.4531 11.7876 18 11.7876 18 11.7876C18 11.7876 23.5469 11.7876 24.9314 12.1603ZM16.225 15.3378V20.6628L20.84 18.0003L16.225 15.3378Z" fill="#171719"/>
</mask>
<g mask="url(#mask0_307_43180)">
<rect x="8" y="8" width="20" height="20" fill="#AEB0B6"/>
</g>
</svg>
