<svg width="140" height="21" viewBox="0 0 140 21" fill="none" xmlns="http://www.w3.org/2000/svg">
<path fill-rule="evenodd" clip-rule="evenodd" d="M58.7299 2.10742C59.2255 2.10742 59.632 2.24299 59.9494 2.51391C60.2663 2.78504 60.425 3.13402 60.425 3.56039C60.425 4.01012 60.2694 4.38202 59.958 4.67607C59.6467 4.97012 59.2374 5.11715 58.7299 5.11715C58.2225 5.11715 57.8132 4.97315 57.5018 4.68472C57.1905 4.3965 57.0348 4.03866 57.0348 3.61229C57.0348 3.18591 57.1905 2.82829 57.5018 2.53985C57.8132 2.25164 58.2343 2.10742 58.7299 2.10742ZM43.5433 7.27931C42.7589 6.61056 41.6579 6.27607 40.2395 6.27607C39.5014 6.27607 38.7749 6.37121 38.0601 6.56148C37.3448 6.75175 36.7338 7.03153 36.2266 7.40039L37.1779 9.2858C37.5239 9.02072 37.936 8.81012 38.4147 8.65445C38.8929 8.49877 39.3803 8.42094 39.8763 8.42094C40.6028 8.42094 41.1416 8.58266 41.4936 8.90526C41.8452 9.22829 42.0212 9.67802 42.0212 10.2544V10.2717H39.8936C38.9362 10.2717 38.1639 10.3872 37.5758 10.6177C36.9876 10.8484 36.5578 11.1742 36.2871 11.595C36.016 12.016 35.8806 12.4975 35.8806 13.0393C35.8806 13.5812 36.0218 14.0484 36.3044 14.475C36.5868 14.9018 36.9876 15.2391 37.5066 15.4869C38.0255 15.7347 38.6423 15.8588 39.3574 15.8588C40.176 15.8588 40.8449 15.7003 41.3639 15.3831C41.7143 15.1688 41.9909 14.8953 42.1941 14.5626V15.7204H44.7195V10.4101C44.7195 8.99175 44.3273 7.94829 43.5433 7.27931ZM42.0212 12.7799C41.8711 13.2067 41.6147 13.5236 41.2514 13.7312C40.8882 13.9388 40.4756 14.0426 40.0147 14.0426C39.5537 14.0426 39.1872 13.9418 38.9163 13.7399C38.6452 13.5381 38.5098 13.2642 38.5098 12.9182C38.5098 12.6069 38.6279 12.3474 38.8644 12.1399C39.1007 11.9323 39.536 11.8285 40.1703 11.8285H42.0212V12.7799ZM33.5455 6.41445L30.8614 12.7548L28.2871 6.41445H25.5195L29.4287 15.7204H32.1963L36.1228 6.41445H33.5455ZM51.9496 6.27607C52.6875 6.27607 53.3476 6.4231 53.9301 6.71715C54.5124 7.01121 54.9706 7.46094 55.3053 8.06634C55.6395 8.67175 55.8069 9.44753 55.8069 10.3928V15.7204H53.1085V10.808C53.1085 10.0586 52.9442 9.50504 52.6155 9.14742C52.2869 8.79023 51.8225 8.61121 51.2231 8.61121C50.7963 8.61121 50.4129 8.70353 50.0728 8.88796C49.7325 9.07261 49.4674 9.34353 49.2772 9.70094C49.0869 10.0586 48.9918 10.5312 48.9918 11.1193V15.7204H46.2934V6.41445H48.8707V7.52061C49.1377 7.2231 49.4547 6.9751 49.822 6.77769C50.4447 6.44342 51.1539 6.27607 51.9496 6.27607ZM60.0791 15.7204V6.41445H57.3807V15.7204H60.0791ZM64.4207 2.8858H61.7223V15.7204H64.4207V2.8858ZM66.064 2.8858H68.7623V15.7204H66.064V2.8858ZM77.4627 7.27931C76.6782 6.61056 75.5773 6.27607 74.1589 6.27607C73.4207 6.27607 72.6942 6.37121 71.9794 6.56148C71.2642 6.75175 70.6532 7.03153 70.1459 7.40039L71.0973 9.2858C71.4432 9.02072 71.8553 8.81012 72.334 8.65445C72.8123 8.49877 73.2996 8.42094 73.7956 8.42094C74.5221 8.42094 75.0609 8.58266 75.4129 8.90526C75.7645 9.22829 75.9405 9.67802 75.9405 10.2544V10.2717H73.8129C72.8555 10.2717 72.0832 10.3872 71.4951 10.6177C70.907 10.8484 70.4772 11.1742 70.2065 11.595C69.9353 12.016 69.8 12.4975 69.8 13.0393C69.8 13.5812 69.9412 14.0484 70.2238 14.475C70.5061 14.9018 70.907 15.2391 71.4259 15.4869C71.9448 15.7347 72.5617 15.8588 73.2767 15.8588C74.0953 15.8588 74.7643 15.7003 75.2832 15.3831C75.6337 15.1688 75.9102 14.8953 76.1135 14.5626V15.7204H78.6389V10.4101C78.6389 8.99175 78.2467 7.94829 77.4627 7.27931ZM75.9405 12.7799C75.7905 13.2067 75.534 13.5236 75.1708 13.7312C74.8075 13.9388 74.395 14.0426 73.934 14.0426C73.473 14.0426 73.1066 13.9418 72.8356 13.7399C72.5645 13.5381 72.4292 13.2642 72.4292 12.9182C72.4292 12.6069 72.5472 12.3474 72.7837 12.1399C73.0201 11.9323 73.4553 11.8285 74.0897 11.8285H75.9405V12.7799ZM87.6419 13.6447C88.0685 13.6447 88.4605 13.544 88.8181 13.342C89.1753 13.1405 89.481 12.8144 89.7349 12.3647L91.8106 13.5063C91.4875 14.2445 90.96 14.8209 90.2278 15.2361C89.4955 15.6512 88.6624 15.8588 87.6592 15.8588C86.656 15.8588 85.7651 15.6542 84.9868 15.2447C84.2084 14.8356 83.5969 14.2674 83.1533 13.5409C82.7091 12.8144 82.4873 12.0015 82.4873 11.0674C82.4873 10.1334 82.7091 9.30915 83.1533 8.59391C83.5969 7.8791 84.2084 7.31391 84.9868 6.89877C85.7651 6.48364 86.6793 6.27607 87.6592 6.27607C88.6391 6.27607 89.4953 6.48083 90.2278 6.89013C90.96 7.29964 91.4875 7.8791 91.8106 8.6285L89.7349 9.77012C89.481 9.33207 89.1753 9.01207 88.8181 8.81013C88.4605 8.6084 88.0685 8.50742 87.6419 8.50742C87.1922 8.50742 86.7827 8.6084 86.4138 8.81013C86.0445 9.01207 85.7504 9.3031 85.5316 9.68364C85.3124 10.0642 85.203 10.5252 85.203 11.0674C85.203 11.6097 85.3124 12.0737 85.5316 12.4599C85.7507 12.8462 86.0445 13.1403 86.4138 13.342C86.7827 13.544 87.1922 13.6447 87.6419 13.6447ZM99.4557 6.89013C98.683 6.48083 97.8008 6.27607 96.8093 6.27607C95.8177 6.27607 94.9554 6.48083 94.1887 6.89013C93.4216 7.29964 92.8192 7.86461 92.3811 8.58526C91.9429 9.30613 91.7239 10.1334 91.7239 11.0674C91.7239 12.0015 91.9427 12.8119 92.3811 13.5323C92.8192 14.2532 93.4216 14.8209 94.1887 15.2361C94.9554 15.6512 95.8289 15.8588 96.8093 15.8588C97.7896 15.8588 98.683 15.6512 99.4557 15.2361C100.228 14.8209 100.833 14.256 101.272 13.5409C101.71 12.8261 101.929 12.0015 101.929 11.0674C101.929 10.1334 101.71 9.30613 101.272 8.58526C100.833 7.86461 100.228 7.29964 99.4557 6.89013ZM98.8763 12.4512C98.6627 12.8434 98.3803 13.1405 98.0287 13.342C97.6767 13.544 97.2702 13.6447 96.8093 13.6447C96.3483 13.6447 95.9732 13.544 95.6157 13.342C95.2581 13.1403 94.9727 12.8434 94.7595 12.4512C94.5459 12.0594 94.4395 11.598 94.4395 11.0674C94.4395 10.5368 94.5459 10.0642 94.7595 9.68364C94.9727 9.3031 95.2581 9.01207 95.6157 8.81013C95.9729 8.6084 96.3768 8.50742 96.8266 8.50742C97.2763 8.50742 97.6767 8.6084 98.0287 8.81013C98.3803 9.01207 98.6629 9.3031 98.8763 9.68364C99.0895 10.0642 99.1963 10.5256 99.1963 11.0674C99.1963 11.6093 99.0895 12.0594 98.8763 12.4512ZM108.917 6.79499C109.188 6.95412 109.43 7.15131 109.644 7.38591V2.8858H112.342V15.7204H109.765V14.6579C109.534 14.9396 109.266 15.1701 108.961 15.3485C108.378 15.6888 107.678 15.8588 106.859 15.8588C105.982 15.8588 105.193 15.6599 104.489 15.262C103.786 14.8642 103.232 14.3079 102.829 13.5928C102.425 12.878 102.223 12.0361 102.223 11.0674C102.223 10.0988 102.425 9.25704 102.829 8.54202C103.232 7.82721 103.786 7.27067 104.489 6.87283C105.192 6.47499 105.982 6.27607 106.859 6.27607C107.643 6.27607 108.329 6.44904 108.917 6.79499ZM108.52 13.342C108.877 13.1405 109.162 12.8434 109.376 12.4512C109.589 12.0594 109.696 11.6093 109.696 11.0674C109.696 10.5256 109.589 10.0642 109.376 9.68364C109.162 9.3031 108.877 9.01207 108.52 8.81013C108.162 8.6084 107.747 8.50742 107.309 8.50742C106.87 8.50742 106.473 8.6084 106.115 8.81013C105.758 9.01207 105.472 9.3031 105.259 9.68364C105.046 10.0642 104.939 10.5368 104.939 11.0674C104.939 11.598 105.045 12.0594 105.259 12.4512C105.472 12.8434 105.758 13.1403 106.115 13.342C106.473 13.544 106.859 13.6447 107.309 13.6447C107.758 13.6447 108.162 13.544 108.52 13.342ZM116.537 2.51391C116.219 2.24299 115.813 2.10742 115.317 2.10742C114.822 2.10742 114.4 2.25164 114.089 2.53985C113.778 2.82829 113.622 3.18591 113.622 3.61229C113.622 4.03867 113.778 4.3965 114.089 4.68472C114.4 4.97315 114.81 5.11715 115.317 5.11715C115.825 5.11715 116.234 4.97012 116.545 4.67607C116.857 4.38202 117.012 4.01012 117.012 3.5604C117.012 3.13402 116.854 2.78504 116.537 2.51391ZM113.968 6.41445H116.666V15.7204H113.968V6.41445ZM125.946 6.71715C125.364 6.4231 124.704 6.27607 123.966 6.27607C123.17 6.27607 122.461 6.44342 121.838 6.77769C121.471 6.9751 121.154 7.2231 120.887 7.52061V6.41445H118.31V15.7204H121.008V11.1193C121.008 10.5312 121.103 10.0586 121.293 9.70094C121.484 9.34353 121.749 9.07261 122.089 8.88796C122.429 8.70353 122.812 8.61121 123.239 8.61121C123.839 8.61121 124.303 8.79023 124.632 9.14742C124.96 9.50504 125.125 10.0586 125.125 10.808V15.7204H127.823V10.3928C127.823 9.44753 127.656 8.67175 127.321 8.06634C126.987 7.46094 126.528 7.01121 125.946 6.71715ZM136.506 7.59542V6.41467H139.066V14.1639C139.066 15.8819 138.616 17.1533 137.717 17.9779C136.817 18.8021 135.526 19.2147 133.842 19.2147C132.966 19.2147 132.121 19.1079 131.308 18.8947C130.495 18.681 129.818 18.3613 129.276 17.9347L130.348 15.9801C130.752 16.3143 131.251 16.5768 131.844 16.7671C132.438 16.9574 133.041 17.0525 133.652 17.0525C134.597 17.0525 135.289 16.8389 135.728 16.4125C136.166 15.9857 136.385 15.3517 136.385 14.5098V14.0862C136.134 14.3727 135.843 14.606 135.512 14.7863C134.917 15.1094 134.252 15.2707 133.41 15.2707C132.568 15.2707 131.795 15.0834 131.092 14.7085C130.389 14.334 129.829 13.809 129.414 13.1344C128.999 12.4599 128.792 11.6841 128.792 10.7734C128.792 9.86267 128.999 9.06958 129.414 8.39499C129.829 7.7204 130.389 7.19888 131.092 6.82958C131.795 6.46072 132.603 6.27607 133.41 6.27607C134.217 6.27607 134.917 6.43477 135.512 6.75175C135.898 6.95823 136.229 7.23975 136.506 7.59542ZM135.226 12.7799C135.595 12.584 135.883 12.3128 136.091 11.9669C136.299 11.6209 136.402 11.2343 136.402 10.7734C136.402 10.3124 136.299 9.91153 136.091 9.57121C135.883 9.23131 135.595 8.96883 135.226 8.78418C134.857 8.59975 134.425 8.50742 133.963 8.50742C133.502 8.50742 133.084 8.59975 132.709 8.78418C132.334 8.96883 132.04 9.23131 131.827 9.57121C131.614 9.91153 131.507 10.3236 131.507 10.7734C131.507 11.2231 131.614 11.6209 131.827 11.9669C132.04 12.3128 132.334 12.584 132.709 12.7799C133.084 12.976 133.491 13.0739 133.963 13.0739C134.436 13.0739 134.857 12.976 135.226 12.7799Z" fill="#989BA2"/>
<path fill-rule="evenodd" clip-rule="evenodd" d="M19.2004 8.11954L20.2383 7.0817H20.2385L16.7851 3.6283C16.4474 3.29057 15.8997 3.29057 15.5619 3.6283L13.1464 6.04386L10.7308 3.6283C10.3931 3.29057 9.84541 3.29057 9.50768 3.6283L7.09211 6.04386L4.67654 3.6283C4.33881 3.29057 3.79114 3.29057 3.45341 3.6283L0 7.0817L1.03784 8.11954L4.06486 5.09251L6.48043 7.50808C6.81816 7.84581 7.36584 7.84581 7.70357 7.50808L10.1191 5.09251L12.5347 7.50808C12.8724 7.84581 13.4201 7.84581 13.7578 7.50808L16.1734 5.09251L19.2004 8.11954ZM19.2004 16.3793L20.2383 15.3415H20.2385L16.7851 11.8881C16.4474 11.5503 15.8997 11.5503 15.5619 11.8881L13.1464 14.3036L10.7308 11.8881C10.3931 11.5503 9.84541 11.5503 9.50768 11.8881L7.09211 14.3036L4.67654 11.8881C4.33881 11.5503 3.79114 11.5503 3.45341 11.8881L0 15.3415L1.03784 16.3793L4.06486 13.3523L6.48043 15.7678C6.81816 16.1056 7.36584 16.1056 7.70357 15.7678L10.1191 13.3523L12.5347 15.7678C12.8724 16.1056 13.4201 16.1056 13.7578 15.7678L16.1734 13.3523L19.2004 16.3793Z" fill="#989BA2"/>
</svg>
