<svg width="140" height="20" viewBox="0 0 140 20" fill="none" xmlns="http://www.w3.org/2000/svg">
<path fill-rule="evenodd" clip-rule="evenodd" d="M58.7299 1.73242C59.2255 1.73242 59.632 1.86799 59.9494 2.13891C60.2663 2.41004 60.425 2.75902 60.425 3.18539C60.425 3.63512 60.2694 4.00702 59.958 4.30107C59.6467 4.59512 59.2374 4.74215 58.7299 4.74215C58.2225 4.74215 57.8132 4.59815 57.5018 4.30972C57.1905 4.0215 57.0348 3.66366 57.0348 3.23729C57.0348 2.81091 57.1905 2.45329 57.5018 2.16485C57.8132 1.87664 58.2343 1.73242 58.7299 1.73242ZM43.5433 6.90431C42.7589 6.23556 41.6579 5.90107 40.2395 5.90107C39.5014 5.90107 38.7749 5.99621 38.0601 6.18648C37.3448 6.37675 36.7338 6.65653 36.2266 7.02539L37.1779 8.9108C37.5239 8.64572 37.936 8.43512 38.4147 8.27945C38.8929 8.12377 39.3803 8.04594 39.8763 8.04594C40.6028 8.04594 41.1416 8.20766 41.4936 8.53026C41.8452 8.85329 42.0212 9.30302 42.0212 9.87945V9.89675H39.8936C38.9362 9.89675 38.1639 10.0122 37.5758 10.2427C36.9876 10.4734 36.5578 10.7992 36.2871 11.22C36.016 11.641 35.8806 12.1225 35.8806 12.6643C35.8806 13.2062 36.0218 13.6734 36.3044 14.1C36.5868 14.5268 36.9876 14.8641 37.5066 15.1119C38.0255 15.3597 38.6423 15.4838 39.3574 15.4838C40.176 15.4838 40.8449 15.3253 41.3639 15.0081C41.7143 14.7938 41.9909 14.5203 42.1941 14.1876V15.3454H44.7195V10.0351C44.7195 8.61675 44.3273 7.57329 43.5433 6.90431ZM42.0212 12.4049C41.8711 12.8317 41.6147 13.1486 41.2514 13.3562C40.8882 13.5638 40.4756 13.6676 40.0147 13.6676C39.5537 13.6676 39.1872 13.5668 38.9163 13.3649C38.6452 13.1631 38.5098 12.8892 38.5098 12.5432C38.5098 12.2319 38.6279 11.9724 38.8644 11.7649C39.1007 11.5573 39.536 11.4535 40.1703 11.4535H42.0212V12.4049ZM33.5455 6.03945L30.8614 12.3798L28.2871 6.03945H25.5195L29.4287 15.3454H32.1963L36.1228 6.03945H33.5455ZM51.9496 5.90107C52.6875 5.90107 53.3476 6.0481 53.9301 6.34215C54.5124 6.63621 54.9706 7.08594 55.3053 7.69134C55.6395 8.29675 55.8069 9.07253 55.8069 10.0178V15.3454H53.1085V10.433C53.1085 9.68356 52.9442 9.13004 52.6155 8.77242C52.2869 8.41523 51.8225 8.23621 51.2231 8.23621C50.7963 8.23621 50.4129 8.32853 50.0728 8.51296C49.7325 8.69761 49.4674 8.96853 49.2772 9.32594C49.0869 9.68356 48.9918 10.1562 48.9918 10.7443V15.3454H46.2934V6.03945H48.8707V7.14561C49.1377 6.8481 49.4547 6.6001 49.822 6.40269C50.4447 6.06842 51.1539 5.90107 51.9496 5.90107ZM60.0791 15.3454V6.03945H57.3807V15.3454H60.0791ZM64.4207 2.5108H61.7223V15.3454H64.4207V2.5108ZM66.064 2.5108H68.7623V15.3454H66.064V2.5108ZM77.4627 6.90431C76.6782 6.23556 75.5773 5.90107 74.1589 5.90107C73.4207 5.90107 72.6942 5.99621 71.9794 6.18648C71.2642 6.37675 70.6532 6.65653 70.1459 7.02539L71.0973 8.9108C71.4432 8.64572 71.8553 8.43512 72.334 8.27945C72.8123 8.12377 73.2996 8.04594 73.7956 8.04594C74.5221 8.04594 75.0609 8.20766 75.4129 8.53026C75.7645 8.85329 75.9405 9.30302 75.9405 9.87945V9.89675H73.8129C72.8555 9.89675 72.0832 10.0122 71.4951 10.2427C70.907 10.4734 70.4772 10.7992 70.2065 11.22C69.9353 11.641 69.8 12.1225 69.8 12.6643C69.8 13.2062 69.9412 13.6734 70.2238 14.1C70.5061 14.5268 70.907 14.8641 71.4259 15.1119C71.9448 15.3597 72.5617 15.4838 73.2767 15.4838C74.0953 15.4838 74.7643 15.3253 75.2832 15.0081C75.6337 14.7938 75.9102 14.5203 76.1135 14.1876V15.3454H78.6389V10.0351C78.6389 8.61675 78.2467 7.57329 77.4627 6.90431ZM75.9405 12.4049C75.7905 12.8317 75.534 13.1486 75.1708 13.3562C74.8075 13.5638 74.395 13.6676 73.934 13.6676C73.473 13.6676 73.1066 13.5668 72.8356 13.3649C72.5645 13.1631 72.4292 12.8892 72.4292 12.5432C72.4292 12.2319 72.5472 11.9724 72.7837 11.7649C73.0201 11.5573 73.4553 11.4535 74.0897 11.4535H75.9405V12.4049ZM87.6419 13.2697C88.0685 13.2697 88.4605 13.169 88.8181 12.967C89.1753 12.7655 89.481 12.4394 89.7349 11.9897L91.8106 13.1313C91.4875 13.8695 90.96 14.4459 90.2278 14.8611C89.4955 15.2762 88.6624 15.4838 87.6592 15.4838C86.656 15.4838 85.7651 15.2792 84.9868 14.8697C84.2084 14.4606 83.5969 13.8924 83.1533 13.1659C82.7091 12.4394 82.4873 11.6265 82.4873 10.6924C82.4873 9.75837 82.7091 8.93415 83.1533 8.21891C83.5969 7.5041 84.2084 6.93891 84.9868 6.52377C85.7651 6.10864 86.6793 5.90107 87.6592 5.90107C88.6391 5.90107 89.4953 6.10583 90.2278 6.51513C90.96 6.92464 91.4875 7.5041 91.8106 8.2535L89.7349 9.39512C89.481 8.95707 89.1753 8.63707 88.8181 8.43513C88.4605 8.2334 88.0685 8.13242 87.6419 8.13242C87.1922 8.13242 86.7827 8.2334 86.4138 8.43513C86.0445 8.63707 85.7504 8.9281 85.5316 9.30864C85.3124 9.68918 85.203 10.1502 85.203 10.6924C85.203 11.2347 85.3124 11.6987 85.5316 12.0849C85.7507 12.4712 86.0445 12.7653 86.4138 12.967C86.7827 13.169 87.1922 13.2697 87.6419 13.2697ZM99.4557 6.51513C98.683 6.10583 97.8008 5.90107 96.8093 5.90107C95.8177 5.90107 94.9554 6.10583 94.1887 6.51513C93.4216 6.92464 92.8192 7.48961 92.3811 8.21026C91.9429 8.93113 91.7239 9.75837 91.7239 10.6924C91.7239 11.6265 91.9427 12.4369 92.3811 13.1573C92.8192 13.8782 93.4216 14.4459 94.1887 14.8611C94.9554 15.2762 95.8289 15.4838 96.8093 15.4838C97.7896 15.4838 98.683 15.2762 99.4557 14.8611C100.228 14.4459 100.833 13.881 101.272 13.1659C101.71 12.4511 101.929 11.6265 101.929 10.6924C101.929 9.75837 101.71 8.93113 101.272 8.21026C100.833 7.48961 100.228 6.92464 99.4557 6.51513ZM98.8763 12.0762C98.6627 12.4684 98.3803 12.7655 98.0287 12.967C97.6767 13.169 97.2702 13.2697 96.8093 13.2697C96.3483 13.2697 95.9732 13.169 95.6157 12.967C95.2581 12.7653 94.9727 12.4684 94.7595 12.0762C94.5459 11.6844 94.4395 11.223 94.4395 10.6924C94.4395 10.1618 94.5459 9.68918 94.7595 9.30864C94.9727 8.9281 95.2581 8.63707 95.6157 8.43513C95.9729 8.2334 96.3768 8.13242 96.8266 8.13242C97.2763 8.13242 97.6767 8.2334 98.0287 8.43513C98.3803 8.63707 98.6629 8.9281 98.8763 9.30864C99.0895 9.68918 99.1963 10.1506 99.1963 10.6924C99.1963 11.2343 99.0895 11.6844 98.8763 12.0762ZM108.917 6.41999C109.188 6.57912 109.43 6.77631 109.644 7.01091V2.5108H112.342V15.3454H109.765V14.2829C109.534 14.5646 109.266 14.7951 108.961 14.9735C108.378 15.3138 107.678 15.4838 106.859 15.4838C105.982 15.4838 105.193 15.2849 104.489 14.887C103.786 14.4892 103.232 13.9329 102.829 13.2178C102.425 12.503 102.223 11.6611 102.223 10.6924C102.223 9.72377 102.425 8.88204 102.829 8.16702C103.232 7.45221 103.786 6.89567 104.489 6.49783C105.192 6.09999 105.982 5.90107 106.859 5.90107C107.643 5.90107 108.329 6.07404 108.917 6.41999ZM108.52 12.967C108.877 12.7655 109.162 12.4684 109.376 12.0762C109.589 11.6844 109.696 11.2343 109.696 10.6924C109.696 10.1506 109.589 9.68918 109.376 9.30864C109.162 8.9281 108.877 8.63707 108.52 8.43513C108.162 8.2334 107.747 8.13242 107.309 8.13242C106.87 8.13242 106.473 8.2334 106.115 8.43513C105.758 8.63707 105.472 8.9281 105.259 9.30864C105.046 9.68918 104.939 10.1618 104.939 10.6924C104.939 11.223 105.045 11.6844 105.259 12.0762C105.472 12.4684 105.758 12.7653 106.115 12.967C106.473 13.169 106.859 13.2697 107.309 13.2697C107.758 13.2697 108.162 13.169 108.52 12.967ZM116.537 2.13891C116.219 1.86799 115.813 1.73242 115.317 1.73242C114.822 1.73242 114.4 1.87664 114.089 2.16485C113.778 2.45329 113.622 2.81091 113.622 3.23729C113.622 3.66367 113.778 4.0215 114.089 4.30972C114.4 4.59815 114.81 4.74215 115.317 4.74215C115.825 4.74215 116.234 4.59512 116.545 4.30107C116.857 4.00702 117.012 3.63512 117.012 3.1854C117.012 2.75902 116.854 2.41004 116.537 2.13891ZM113.968 6.03945H116.666V15.3454H113.968V6.03945ZM125.946 6.34215C125.364 6.0481 124.704 5.90107 123.966 5.90107C123.17 5.90107 122.461 6.06842 121.838 6.40269C121.471 6.6001 121.154 6.8481 120.887 7.14561V6.03945H118.31V15.3454H121.008V10.7443C121.008 10.1562 121.103 9.68356 121.293 9.32594C121.484 8.96853 121.749 8.69761 122.089 8.51296C122.429 8.32853 122.812 8.23621 123.239 8.23621C123.839 8.23621 124.303 8.41523 124.632 8.77242C124.96 9.13004 125.125 9.68356 125.125 10.433V15.3454H127.823V10.0178C127.823 9.07253 127.656 8.29675 127.321 7.69134C126.987 7.08594 126.528 6.63621 125.946 6.34215ZM136.506 7.22042V6.03967H139.066V13.7889C139.066 15.5069 138.616 16.7783 137.717 17.6029C136.817 18.4271 135.526 18.8397 133.842 18.8397C132.966 18.8397 132.121 18.7329 131.308 18.5197C130.495 18.306 129.818 17.9863 129.276 17.5597L130.348 15.6051C130.752 15.9393 131.251 16.2018 131.844 16.3921C132.438 16.5824 133.041 16.6775 133.652 16.6775C134.597 16.6775 135.289 16.4639 135.728 16.0375C136.166 15.6107 136.385 14.9767 136.385 14.1348V13.7112C136.134 13.9977 135.843 14.231 135.512 14.4113C134.917 14.7344 134.252 14.8957 133.41 14.8957C132.568 14.8957 131.795 14.7084 131.092 14.3335C130.389 13.959 129.829 13.434 129.414 12.7594C128.999 12.0849 128.792 11.3091 128.792 10.3984C128.792 9.48767 128.999 8.69458 129.414 8.01999C129.829 7.3454 130.389 6.82388 131.092 6.45458C131.795 6.08572 132.603 5.90107 133.41 5.90107C134.217 5.90107 134.917 6.05977 135.512 6.37675C135.898 6.58323 136.229 6.86475 136.506 7.22042ZM135.226 12.4049C135.595 12.209 135.883 11.9378 136.091 11.5919C136.299 11.2459 136.402 10.8593 136.402 10.3984C136.402 9.9374 136.299 9.53653 136.091 9.19621C135.883 8.85631 135.595 8.59383 135.226 8.40918C134.857 8.22475 134.425 8.13242 133.963 8.13242C133.502 8.13242 133.084 8.22475 132.709 8.40918C132.334 8.59383 132.04 8.85631 131.827 9.19621C131.614 9.53653 131.507 9.94864 131.507 10.3984C131.507 10.8481 131.614 11.2459 131.827 11.5919C132.04 11.9378 132.334 12.209 132.709 12.4049C133.084 12.601 133.491 12.6989 133.963 12.6989C134.436 12.6989 134.857 12.601 135.226 12.4049Z" fill="#0F0F0F"/>
<path fill-rule="evenodd" clip-rule="evenodd" d="M19.2004 7.74454L20.2383 6.7067H20.2385L16.7851 3.2533C16.4474 2.91557 15.8997 2.91557 15.5619 3.2533L13.1464 5.66886L10.7308 3.2533C10.3931 2.91557 9.84541 2.91557 9.50768 3.2533L7.09211 5.66886L4.67654 3.2533C4.33881 2.91557 3.79114 2.91557 3.45341 3.2533L0 6.7067L1.03784 7.74454L4.06486 4.71751L6.48043 7.13308C6.81816 7.47081 7.36584 7.47081 7.70357 7.13308L10.1191 4.71751L12.5347 7.13308C12.8724 7.47081 13.4201 7.47081 13.7578 7.13308L16.1734 4.71751L19.2004 7.74454ZM19.2004 16.0043L20.2383 14.9665H20.2385L16.7851 11.5131C16.4474 11.1753 15.8997 11.1753 15.5619 11.5131L13.1464 13.9286L10.7308 11.5131C10.3931 11.1753 9.84541 11.1753 9.50768 11.5131L7.09211 13.9286L4.67654 11.5131C4.33881 11.1753 3.79114 11.1753 3.45341 11.5131L0 14.9665L1.03784 16.0043L4.06486 12.9773L6.48043 15.3928C6.81816 15.7306 7.36584 15.7306 7.70357 15.3928L10.1191 12.9773L12.5347 15.3928C12.8724 15.7306 13.4201 15.7306 13.7578 15.3928L16.1734 12.9773L19.2004 16.0043Z" fill="#0F0F0F"/>
</svg>
